<?xml version="1.0" standalone="no"?>
<!DOCTYPE svg PUBLIC "-//W3C//DTD SVG 20010904//EN"
 "http://www.w3.org/TR/2001/REC-SVG-20010904/DTD/svg10.dtd">
<svg version="1.0" xmlns="http://www.w3.org/2000/svg"
 width="700.000000pt" height="700.000000pt" viewBox="0 0 700.000000 700.000000"
 preserveAspectRatio="xMidYMid meet">
<metadata>
Created by potrace 1.14, written by Peter Selinger 2001-2017
</metadata>
<g transform="translate(0.000000,700.000000) scale(0.100000,-0.100000)"
fill="#000000" stroke="none">
<path d="M6927 6994 c-1 -1 -29 -4 -62 -7 -33 -3 -89 -10 -125 -16 -36 -5 -83
-12 -105 -15 -36 -6 -167 -29 -220 -40 -248 -51 -489 -144 -642 -249 -46 -31
-83 -55 -83 -53 0 15 48 110 110 216 40 69 75 129 77 133 9 15 -222 -106 -294
-154 -170 -114 -288 -256 -345 -415 -13 -35 -26 -64 -30 -64 -10 0 0 143 12
175 5 14 8 25 6 25 -2 0 4 27 14 60 10 33 16 60 12 60 -12 0 -120 -87 -165
-134 -93 -97 -219 -306 -351 -586 -33 -69 -60 -126 -61 -128 -1 -1 -12 -5 -25
-7 -27 -5 -28 -10 35 195 29 93 95 325 95 332 0 7 -78 -49 -100 -72 -7 -8
-193 -156 -248 -198 -26 -19 -52 -40 -58 -46 -7 -6 -31 -27 -55 -46 -54 -43
-126 -107 -158 -140 l-24 -25 -1453 0 c-1032 0 -1456 -3 -1464 -11 -18 -18 -9
-3775 9 -3884 54 -321 236 -628 511 -860 36 -30 67 -58 70 -61 16 -19 229
-154 310 -196 160 -84 443 -188 562 -207 19 -3 41 -8 49 -10 8 -3 26 -8 42
-10 15 -3 53 -10 85 -15 154 -28 262 -36 497 -36 268 0 339 6 645 51 19 3 51
9 70 14 19 5 50 12 69 15 151 26 421 119 606 210 115 56 321 183 366 225 9 8
33 29 55 46 253 204 447 518 526 850 l23 99 0 1072 0 1072 41 29 c118 86 373
227 526 292 32 14 54 28 50 31 -8 8 -150 42 -219 54 -52 8 -54 17 -10 33 80
29 237 157 320 261 27 33 111 161 128 193 122 232 175 395 180 548 2 74 2 73
-31 50 -38 -27 -38 -21 4 37 53 75 92 150 131 253 21 52 39 101 40 110 2 8 13
51 25 95 54 209 84 451 94 766 l3 87 -34 -1 c-19 -1 -35 -2 -36 -3z"/>
</g>
</svg>
